<svg width="27" height="28" viewBox="0 0 27 28" fill="none" xmlns="http://www.w3.org/2000/svg">
<path d="M2.19935 10.7779C2.1978 10.6695 2.20969 10.5614 2.23476 10.456C2.27982 10.25 2.37959 9.99576 2.55661 9.92817C2.60348 9.91372 2.65243 9.90719 2.70144 9.90886C2.95573 9.93441 3.19937 10.0241 3.40952 10.1696L13.5543 15.9114L21.5813 11.2381H21.607L25.2536 9.08813V11.7241L13.3837 18.7372C9.69528 16.6388 4.33001 13.5715 3.99529 13.343C2.8334 12.4772 2.19935 11.56 2.19935 10.7779Z" fill="black"/>
<path d="M25.7652 8.09315L25.7588 8.08993L25.7652 8.0835V8.09315Z" fill="black"/>
<path d="M16.2484 0.420539C14.6745 -0.422712 13.4869 0.262832 13.4869 0.262832L1.21146 7.57852C1.21146 7.57852 0.0624492 8.06451 0.00129736 10.2402C-0.0598544 12.4159 2.06115 14.5337 2.06115 14.5337C2.06115 14.5337 0.181534 15.0777 0.545227 17.7522C0.908919 20.4268 3.81202 22.3386 3.81202 22.3386L13.7476 28L26.8952 20.1018V6.55503C26.8952 6.55503 17.8254 1.28632 16.2484 0.420539ZM1.23721 10.2241C1.30162 9.89597 1.44774 9.58934 1.66205 9.33261C1.80527 9.17116 1.98678 9.04831 2.18989 8.97535C2.96233 8.68891 3.79915 9.20709 3.96651 9.32295L13.5448 14.7301L21.5654 10.0664L22.061 9.76389L26.2644 7.31782V12.329L13.3903 19.9215L13.1328 19.7767C11.5654 18.8852 3.73478 14.4275 3.40649 14.1765C1.69746 12.9019 0.934667 11.5051 1.23721 10.2241ZM26.3127 19.1845L13.5191 26.8188L3.86352 21.3892C3.78305 21.3441 1.79079 20.2112 1.79079 17.8488C1.79079 17.0699 2.03218 16.5389 2.50852 16.2621C3.3389 15.7857 4.43963 16.4069 4.57803 16.4777L13.9117 21.5372L26.3835 14.0381L26.3127 19.1845ZM4.07272 17.3789C3.81436 17.2199 3.52216 17.1239 3.21981 17.0989C3.14838 17.0955 3.07732 17.111 3.01383 17.1439C2.88187 17.2148 2.80784 17.4658 2.80784 17.8391C2.80784 19.6093 4.34308 20.4848 4.35917 20.4912L13.5191 25.6344L25.2924 18.5955L25.3246 15.8469L13.9343 22.6959L13.5191 22.4899L4.07272 17.3789Z" fill="black"/>
<path d="M25.7652 8.0835V8.09315L25.7588 8.08993L25.7652 8.0835Z" fill="black"/>
</svg>
