<svg width="29" height="28" viewBox="0 0 29 28" fill="none" xmlns="http://www.w3.org/2000/svg">
<path d="M1.04783 28.0002L6.69614 22.3768L7.04542 22.7311C7.09204 22.7773 7.14734 22.8139 7.20813 22.8388C7.26892 22.8636 7.33402 22.8762 7.39969 22.8758C7.50993 22.8754 7.61696 22.8386 7.70406 22.771L9.75481 21.1793C9.66999 21.1094 9.59015 21.0396 9.51531 20.9647L7.39969 18.8491C7.32484 18.7743 7.25498 18.6944 7.18513 18.6096L5.59342 20.6604C5.51876 20.7562 5.48162 20.876 5.48897 20.9972C5.49632 21.1185 5.54765 21.2329 5.63334 21.319L5.98761 21.6683L0 27.6559L1.04783 28.0002Z" fill="black"/>
<path d="M21.1607 0.147594C21.1143 0.100826 21.0591 0.063706 20.9983 0.038374C20.9375 0.0130421 20.8723 0 20.8064 0C20.7405 0 20.6753 0.0130421 20.6145 0.038374C20.5537 0.063706 20.4985 0.100826 20.4521 0.147594L19.3943 1.2054C19.3086 1.29151 19.2573 1.40592 19.2499 1.52718C19.2426 1.64844 19.2797 1.76821 19.3544 1.86404L21.5548 4.69319L20.1028 6.14518L22.2185 8.2608L23.6705 6.80881L26.4996 9.00925C26.5867 9.07685 26.6937 9.11369 26.804 9.11404C26.8696 9.11442 26.9347 9.10183 26.9955 9.077C27.0563 9.05217 27.1116 9.01558 27.1582 8.96934L28.2161 7.91152C28.2628 7.86514 28.2999 7.80995 28.3253 7.74915C28.3506 7.68835 28.3636 7.62313 28.3636 7.55726C28.3636 7.49139 28.3506 7.42617 28.3253 7.36537C28.2999 7.30456 28.2628 7.24938 28.2161 7.20299L21.1607 0.147594Z" fill="black"/>
<path d="M10.2241 20.2608C10.692 20.7285 11.3264 20.9912 11.988 20.9912C12.6495 20.9912 13.284 20.7285 13.7518 20.2608L21.1615 12.8511L21.865 13.5546C21.9116 13.6009 21.9669 13.6375 22.0277 13.6623C22.0885 13.6871 22.1536 13.6997 22.2193 13.6993C22.285 13.6997 22.35 13.6871 22.4108 13.6623C22.4716 13.6375 22.5269 13.6009 22.5736 13.5546L23.9806 12.1426C24.0736 12.0491 24.1257 11.9226 24.1257 11.7908C24.1257 11.659 24.0736 11.5325 23.9806 11.439L16.9252 4.38362C16.8318 4.29069 16.7053 4.23853 16.5735 4.23853C16.4417 4.23853 16.3152 4.29069 16.2217 4.38362L14.8346 5.79071C14.7878 5.83709 14.7507 5.89228 14.7254 5.95308C14.7 6.01389 14.687 6.07911 14.687 6.14498C14.687 6.21085 14.7 6.27606 14.7254 6.33687C14.7507 6.39767 14.7878 6.45286 14.8346 6.49924L15.5381 7.20279L8.1035 14.6125C7.63579 15.0803 7.37305 15.7148 7.37305 16.3763C7.37305 17.0378 7.63579 17.6723 8.1035 18.1402L10.2241 20.2608ZM17.6338 14.9667L16.576 13.9089L19.3951 11.0848L20.4529 12.1426L17.6338 14.9667ZM17.2795 8.97911L14.4554 11.7983L13.3975 10.7405L16.2217 7.9213L17.2795 8.97911ZM11.9855 12.1426L16.2217 16.3788L15.5132 17.0823L11.2819 12.8511L11.9855 12.1426Z" fill="black"/>
</svg>
