<svg width="23" height="28" viewBox="0 0 23 28" fill="none" xmlns="http://www.w3.org/2000/svg">
<path d="M22.2686 26.6799V2.92133C22.2686 2.9083 22.2686 2.89202 22.2654 2.87899V2.87574C22.223 2.28308 21.7606 1.84998 21.1615 1.83695C21.0377 1.83369 20.914 1.83695 20.7902 1.83695H14.424V3.80706H15.2934C15.7493 3.80706 16.088 4.18155 16.1075 4.62116C16.1271 5.06077 15.72 5.43526 15.2934 5.43526H6.97663C6.52073 5.43526 6.18207 5.06077 6.16253 4.62116C6.14299 4.18155 6.55004 3.80706 6.97663 3.80706H7.49114V1.83369H2.24184C1.84456 1.83369 1.44077 1.8109 1.04349 1.83695C0.447572 1.87603 0.0177292 2.34495 0.00144728 2.93761C0.00144728 2.99948 0.00144728 3.06461 0.00144728 3.12648V26.4845C0.00144728 26.6246 -0.0018091 26.7678 0.00144728 26.9079C0.0209856 27.5201 0.493161 27.9792 1.10211 27.9955C1.17375 27.9955 1.24864 27.9955 1.32028 27.9955H20.7251C20.9563 27.9955 21.2136 28.0183 21.4415 27.9629C21.9365 27.8425 22.2621 27.3898 22.2654 26.8883C22.2686 26.8167 22.2686 26.7483 22.2686 26.6799ZM8.46154 9.88348C9.39287 8.82516 11.0308 8.57441 12.3366 8.96518C12.9814 9.16056 13.561 9.53505 13.9648 10.0756C14.4207 10.6813 14.5966 11.44 14.6031 12.1857V12.189C14.6031 12.4007 14.5868 12.6091 14.5608 12.8207C14.3589 14.3317 13.3722 15.8883 11.8156 16.266C10.2721 16.6405 8.83928 15.6505 8.16521 14.3057C7.48788 12.951 7.40973 11.0786 8.46154 9.88348ZM17.8334 23.7655C17.8334 23.8534 17.7585 23.9283 17.6706 23.9283C17.6641 23.9283 17.6543 23.9283 17.6478 23.9283C17.1235 23.9511 16.5895 23.9283 16.0652 23.9283H4.59946C4.55062 23.9283 4.51154 23.912 4.48875 23.8827L4.48549 23.8794C4.48549 23.8794 4.48224 23.8794 4.48224 23.8762C4.45618 23.8501 4.43665 23.8143 4.43665 23.7655V21.2743C4.43665 20.7045 4.5897 20.1574 4.93813 19.6982C5.22144 19.3237 5.59592 19.0665 6.01925 18.8776C6.81055 18.5259 7.60185 18.1742 8.39316 17.8258C8.67646 17.7021 8.95651 17.5718 9.23982 17.4481C9.55569 17.3113 9.70222 17.5881 9.8683 17.803C10.2916 18.3566 10.7117 18.9069 11.135 19.4605C11.6137 18.8451 12.0892 18.2296 12.5678 17.6141C12.6525 17.5067 12.7274 17.3992 12.887 17.4025C12.9781 17.4025 13.0726 17.4578 13.154 17.4937C13.4959 17.6467 13.8378 17.7965 14.1798 17.9496C14.9059 18.2719 15.6321 18.5943 16.355 18.92C16.9021 19.1674 17.3547 19.5973 17.6055 20.1476C17.7976 20.5709 17.8334 21.004 17.8334 21.4599V23.7655Z" fill="black"/>
<path d="M12.806 0.377741C12.8028 0.371228 12.7995 0.364715 12.7995 0.354946C12.7995 0.364715 12.7995 0.374485 12.7995 0.384254V3.80672H9.11979V0.801071C9.11979 0.651277 9.11979 0.50474 9.12305 0.354946C9.11979 0.361459 9.11654 0.367972 9.11328 0.377741C9.11979 0.367972 9.12305 0.358203 9.12305 0.345177C9.12305 0.328895 9.12305 0.309357 9.12305 0.293075C9.12305 0.286562 9.12305 0.280049 9.12305 0.273537C9.11654 0.283306 9.11979 0.276793 9.12631 0.263767C9.12631 0.257255 9.12956 0.253998 9.13282 0.250742C9.14259 0.23446 9.15236 0.211665 9.15887 0.195383C9.16538 0.185614 9.16864 0.175845 9.16864 0.169332C9.16864 0.175845 9.16538 0.182358 9.16538 0.188871C9.17515 0.179101 9.18492 0.169332 9.19143 0.156307C9.19143 0.15305 9.19469 0.15305 9.19469 0.149794C9.20446 0.133512 9.21423 0.120486 9.22074 0.113974C9.21097 0.120486 9.21423 0.113974 9.25656 0.0814097C9.28587 0.058615 9.2989 0.0488458 9.30215 0.0488458C9.2989 0.0488458 9.2989 0.0488458 9.29564 0.0521021C9.20772 0.0814096 9.42589 -0.0227947 9.38031 0.0130256C9.41613 0.00976921 9.44869 0.00325639 9.48451 0C9.478 0.00325639 9.46823 0.00651287 9.4552 0.00976926C9.46823 0.00976926 9.48451 0.00976926 9.49754 0.00976926C10.1456 9.89888e-08 10.7968 0.00976926 11.4481 0.00976926C11.7607 0.00976926 12.0733 0.00651287 12.386 0.00976926C12.4022 0.00976926 12.4185 0.00976921 12.4348 0.0130256C12.4478 0.0130256 12.4674 0.0130255 12.4902 0.0162819C12.4967 0.0162819 12.5032 0.0162819 12.5097 0.0162819C12.5129 0.0162819 12.5129 0.0162819 12.5162 0.0162819C12.526 0.0162819 12.539 0.0162819 12.5488 0.0162819C12.539 0.0162819 12.5292 0.0162819 12.5195 0.0195383C12.5292 0.0227947 12.539 0.0260511 12.552 0.0325639C12.5553 0.0358203 12.5618 0.0390767 12.5651 0.0423331C12.5813 0.0488459 12.5976 0.0553587 12.6139 0.0586151C12.5553 -0.00976906 12.7572 0.146537 12.679 0.110717C12.6921 0.126999 12.7181 0.156307 12.7344 0.172589C12.7344 0.169332 12.7344 0.169332 12.7344 0.166076C12.7344 0.169332 12.7344 0.169332 12.7344 0.172589C12.7507 0.188871 12.7572 0.19864 12.7344 0.179101C12.7376 0.192127 12.7409 0.205152 12.7474 0.221434C12.7474 0.221434 12.7474 0.224691 12.7507 0.224691C12.7702 0.257255 12.7767 0.283306 12.7735 0.289818C12.7735 0.289818 12.7735 0.289818 12.7735 0.293075C12.7767 0.3061 12.78 0.332152 12.7832 0.35169C12.7832 0.332152 12.7832 0.312613 12.78 0.293075C12.7767 0.263767 12.7767 0.247485 12.7767 0.244229C12.7767 0.247485 12.78 0.276793 12.7865 0.325639C12.8028 0.341921 12.8028 0.361459 12.806 0.377741Z" fill="black"/>
</svg>
