<svg width="554" height="396" viewBox="0 0 554 396" fill="none" xmlns="http://www.w3.org/2000/svg">
<path d="M268.787 391.417L10.7724 238.937C2.5605 234.314 -4.48854 226.748 3.52238 221.81L262.47 72.5021C266.361 70.0902 272.261 68.511 276.21 70.8081L547.059 228.04C555.271 232.807 556.75 246.13 548.495 250.91L302.841 391.216C297.673 394.211 291.813 395.804 285.841 395.84C279.868 395.875 273.99 394.35 268.787 391.417Z" fill="url(#paint0_linear_111_1458)"/>
<path style="mix-blend-mode:multiply" opacity="0.63" d="M324.709 376.948C338.104 368.104 342.253 369.023 354.714 359.878C346.818 355.772 323.834 342.406 318.967 339.362L286.234 353.891L309.85 367.027C310.023 367.07 324.508 376.948 324.709 376.948Z" fill="url(#paint1_linear_111_1458)"/>
<path d="M229.407 84.0768V144.087L145.909 191.966V244.697" stroke="#F2F2F2" stroke-width="3.045" stroke-miterlimit="10"/>
<path opacity="0.1" d="M292.346 25.5429C291.04 23.8776 272.778 13.0528 272.778 13.0528V13.1533C269.031 9.00425 262.083 10.4543 253.052 18.3216C253.052 18.3216 252.736 9.70772 242.4 8.27207C232.063 6.83642 229.106 11.5884 229.106 11.5884C229.106 11.5884 225.617 -4.76363 204.886 1.38095C186.051 6.96562 188.721 25.8875 188.721 25.8875C188.721 25.8875 177.02 23.0162 167.66 35.8365C161.984 44.047 158.976 53.8074 159.046 63.7886C159.046 63.7886 139.363 70.9669 136.865 88.812C136.653 90.3593 136.524 91.9168 136.478 93.4779V93.9373C136.408 97.7917 136.754 101.642 137.511 105.422C137.7 106.507 138.127 107.536 138.759 108.437C139.392 109.338 140.216 110.088 141.172 110.634L162.046 122.55C162.691 117.36 161.959 112.091 159.922 107.274L263.288 47.293C263.288 47.293 271.199 40.3445 274.515 31.1276L282.469 29.0746C282.469 29.0746 293.652 27.1939 292.346 25.5429Z" fill="#053855"/>
<path opacity="0.1" d="M292.346 25.5429C291.04 23.8776 272.778 13.0528 272.778 13.0528V13.1533C269.031 9.00425 262.083 10.4543 253.052 18.3216C253.052 18.3216 252.736 9.70772 242.4 8.27207C232.063 6.83642 229.106 11.5884 229.106 11.5884C229.106 11.5884 225.617 -4.76363 204.886 1.38095C186.051 6.96562 188.721 25.8875 188.721 25.8875C188.721 25.8875 177.02 23.0162 167.66 35.8365C161.984 44.047 158.976 53.8074 159.046 63.7886C159.046 63.7886 139.363 70.9669 136.865 88.812C136.653 90.3593 136.524 91.9168 136.478 93.4779V93.9373C136.408 97.7917 136.754 101.642 137.511 105.422C137.7 106.507 138.127 107.536 138.759 108.437C139.392 109.338 140.216 110.088 141.172 110.634L162.046 122.55C162.691 117.36 161.959 112.091 159.922 107.274L263.288 47.293C263.288 47.293 271.199 40.3445 274.515 31.1276L282.469 29.0746C282.469 29.0746 293.652 27.1939 292.346 25.5429Z" fill="#053855"/>
<path d="M292.346 25.5429C291.04 23.8776 272.778 13.0528 272.778 13.0528V13.1533C269.031 9.00425 262.083 10.4543 253.052 18.3216C253.052 18.3216 252.736 9.70772 242.4 8.27207C232.063 6.83642 229.106 11.5884 229.106 11.5884C229.106 11.5884 225.617 -4.76363 204.886 1.38095C186.051 6.96562 188.721 25.8875 188.721 25.8875C188.721 25.8875 177.02 23.0162 167.66 35.8365C161.984 44.047 158.976 53.8074 159.046 63.7886C159.046 63.7886 139.363 70.9669 136.865 88.812C136.653 90.3593 136.524 91.9168 136.478 93.4779V93.9373C136.408 97.7917 136.754 101.642 137.511 105.422C137.7 106.507 138.127 107.536 138.759 108.437C139.392 109.338 140.216 110.088 141.172 110.634L162.046 122.55C162.691 117.36 161.959 112.091 159.922 107.274L263.288 47.293C263.288 47.293 271.199 40.3445 274.515 31.1276L282.469 29.0746C282.469 29.0746 293.652 27.1939 292.346 25.5429Z" fill="#033127"/>
<path opacity="0.23" d="M292.346 25.5429C291.04 23.8776 272.778 13.0528 272.778 13.0528V13.1533C269.031 9.00425 262.083 10.4543 253.052 18.3216C253.052 18.3216 252.736 9.70772 242.4 8.27207C232.063 6.83642 229.106 11.5884 229.106 11.5884C229.106 11.5884 225.617 -4.76363 204.886 1.38095C186.051 6.96562 188.721 25.8875 188.721 25.8875C188.721 25.8875 177.02 23.0162 167.66 35.8365C161.984 44.047 158.976 53.8074 159.046 63.7886C159.046 63.7886 139.363 70.9669 136.865 88.812C136.653 90.3593 136.524 91.9168 136.478 93.4779V93.9373C136.408 97.7917 136.754 101.642 137.511 105.422C137.7 106.507 138.127 107.536 138.759 108.437C139.392 109.338 140.216 110.088 141.172 110.634L162.046 122.55C162.691 117.36 161.959 112.091 159.922 107.274L263.288 47.293C263.288 47.293 271.199 40.3445 274.515 31.1276L282.469 29.0746C282.469 29.0746 293.652 27.1939 292.346 25.5429Z" fill="white"/>
<path d="M173.318 123.929L283.174 60.1435C283.174 60.1435 296.655 48.3281 295.822 35.0915C294.989 21.8548 286.232 19.7013 273.081 31.1578C273.081 31.1578 272.808 20.0602 262.429 21.1082C252.049 22.1563 248.072 28.9756 248.072 28.9756C248.072 28.9756 250.14 9.24977 229.409 15.3943C224.085 16.8892 219.303 19.883 215.632 24.0192C211.962 28.1554 209.558 33.2596 208.707 38.7236C208.707 38.7236 197.006 35.8524 187.646 48.6727C181.97 56.8832 178.962 66.6435 179.032 76.6248C179.032 76.6248 159.349 83.803 156.851 101.648C154.353 119.493 162.938 127.59 173.318 123.929Z" fill="#033127"/>
<path d="M229.41 199.589V144.087L332.777 84.0768V127.232" stroke="#F2F2F2" stroke-width="3.045" stroke-miterlimit="10"/>
<path style="mix-blend-mode:multiply" opacity="0.63" d="M287.223 279.666C311.399 263.687 325.382 262.123 347.864 245.613C333.623 238.19 309.403 223.733 300.603 218.235L240.665 253.236L286.074 279.681L287.223 279.666Z" fill="url(#paint2_linear_111_1458)"/>
<path d="M196.719 228.92L249.264 258.638L310.609 222.905V198.886L249.264 234.62L196.719 204.586V228.92Z" fill="#A0D700"/>
<path d="M196.719 204.58L259.242 168.703L310.609 198.881L249.264 234.614L196.719 204.58Z" fill="#CBED4F"/>
<path d="M249.261 234.62V258.638L310.606 222.905V198.886L249.261 234.62Z" fill="#93BC00"/>
<path style="mix-blend-mode:multiply" opacity="0.63" d="M192.495 336.113C216.901 320.005 230.971 318.411 253.654 301.757C239.297 294.263 214.891 279.692 205.99 274.136L145.535 309.381L191.332 336.055L192.495 336.113Z" fill="url(#paint3_linear_111_1458)"/>
<path d="M101.22 284.919L154.21 314.895L216.087 278.86V254.627L154.21 290.661L101.22 260.369V284.919Z" fill="#A0D700"/>
<path d="M101.22 260.369L164.274 224.191L216.087 254.627L154.21 290.662L101.22 260.369Z" fill="#CBED4F"/>
<path d="M154.214 290.661V314.895L216.09 278.86V254.627L154.214 290.661Z" fill="#93BC00"/>
<path style="mix-blend-mode:multiply" opacity="0.63" d="M376.649 227.983C400.826 212.004 414.809 210.439 437.291 193.929C423.05 186.507 398.83 172.05 390.03 166.551L330.12 201.538L375.53 227.983H376.649Z" fill="url(#paint4_linear_111_1458)"/>
<path d="M286.156 177.224L338.686 206.942L400.046 171.223V147.204L338.686 182.923L286.156 152.904V177.224Z" fill="#A0D700"/>
<path d="M286.156 152.9L348.678 117.024L400.046 147.201L338.686 182.92L286.156 152.9Z" fill="#CBED4F"/>
<path d="M338.684 182.923V206.942L400.043 171.223V147.204L338.684 182.923Z" fill="#93BC00"/>
<path style="mix-blend-mode:multiply" opacity="0.63" d="M503.744 268.615C517.138 259.771 515.659 264.308 528.15 255.163C520.254 251.057 496.565 236.27 491.727 233.226L463.761 244.094L488.913 258.737C489.086 258.752 503.528 268.629 503.744 268.615Z" fill="url(#paint5_linear_111_1458)"/>
<path d="M464.839 221.394V239.125H493.509V221.394" fill="#033127"/>
<path d="M479.167 228.443C487.08 228.443 493.494 225.287 493.494 221.394C493.494 217.5 487.08 214.344 479.167 214.344C471.254 214.344 464.839 217.5 464.839 221.394C464.839 225.287 471.254 228.443 479.167 228.443Z" fill="#033127"/>
<path opacity="0.73" d="M479.167 228.443C487.08 228.443 493.494 225.287 493.494 221.394C493.494 217.5 487.08 214.344 479.167 214.344C471.254 214.344 464.839 217.5 464.839 221.394C464.839 225.287 471.254 228.443 479.167 228.443Z" fill="black"/>
<path d="M479.167 246.865C487.08 246.865 493.494 243.709 493.494 239.816C493.494 235.922 487.08 232.767 479.167 232.767C471.254 232.767 464.839 235.922 464.839 239.816C464.839 243.709 471.254 246.865 479.167 246.865Z" fill="#033127"/>
<path d="M495.213 180.177C492.184 178.943 488.035 174.822 484.331 174.952C483.125 178.468 482.382 182.126 482.12 185.834C481.423 191.862 481.284 197.941 481.704 203.995C481.79 205.344 481.9 206.689 482.034 208.029C482.069 208.423 482.176 208.808 482.35 209.163C482.35 213.843 482.35 218.519 482.35 223.19C482.35 223.308 482.397 223.421 482.48 223.504C482.564 223.588 482.677 223.635 482.795 223.635C482.913 223.635 483.026 223.588 483.11 223.504C483.193 223.421 483.24 223.308 483.24 223.19C483.24 218.691 483.24 214.193 483.24 209.694C484.676 209.221 486.054 208.585 487.346 207.799C490.028 206.105 492.053 203.548 493.088 200.549C495.4 194.103 493.935 186.911 496.132 180.536C495.859 180.436 495.543 180.321 495.213 180.177Z" fill="#297600"/>
<path d="M489.029 169.641C487.319 170.652 485.907 172.099 484.937 173.833C484.681 174.227 484.464 174.645 484.291 175.082L484.162 175.355C483.887 176.082 483.656 176.825 483.473 177.58C483.818 177.008 484.359 176.58 484.995 176.374C485.749 176.044 486.591 175.968 487.392 176.159C488.17 176.454 488.908 176.845 489.589 177.322C490.608 177.939 491.599 178.628 492.604 179.274C497.356 182.289 503.673 182.605 507.348 178.198C507.348 178.025 507.434 177.853 507.477 177.667C508.008 174.666 499.524 163.54 489.029 169.641Z" fill="#5FAD00"/>
<path d="M505.269 180.079L505.858 179.691C505.867 179.629 505.861 179.565 505.841 179.505C505.821 179.446 505.788 179.391 505.743 179.347C503.034 176.212 499.659 173.72 495.866 172.054C493.056 170.989 490.013 170.692 487.051 171.192C486.735 171.566 486.448 171.953 486.161 172.341C489.542 171.457 493.123 171.756 496.311 173.188C499.673 174.846 502.674 177.154 505.14 179.979C505.176 180.02 505.22 180.054 505.269 180.079Z" fill="#297600"/>
<path d="M457.108 186.489C455.037 187.57 453.327 189.233 452.189 191.274C451.051 193.315 450.536 195.644 450.705 197.974C451.05 206.43 464.976 198.175 468.68 191.04C472.384 183.905 472.987 194.084 472.987 194.084" fill="#297600"/>
<path d="M469.658 183.538C467.039 183.493 464.428 183.856 461.92 184.615C460.238 185.017 458.62 185.65 457.111 186.495C457.988 187.067 458.922 187.548 459.896 187.931C461.719 188.471 463.306 189.609 464.404 191.161C464.626 191.567 464.805 191.995 464.935 192.439C465.782 195.224 465.05 198.598 466.199 201.397C466.679 202.866 467.574 204.165 468.777 205.136C469.979 206.106 471.438 206.708 472.975 206.867C476.908 207.111 478.717 203.335 479.478 200.077C480.239 196.818 481.316 192.353 480.081 189.008C478.631 185.117 473.362 183.71 469.658 183.538Z" fill="#5FAD00"/>
<path d="M474.83 196.733C473.179 191.393 469.691 186.354 464.58 183.985H464.393L464.149 184.056L463.216 184.301C469.174 186.511 472.921 192.383 474.443 198.384C476.395 206.065 475.735 214.377 475.763 222.23C475.781 222.326 475.832 222.412 475.907 222.474C475.981 222.536 476.075 222.57 476.173 222.57C476.27 222.57 476.364 222.536 476.438 222.474C476.513 222.412 476.564 222.326 476.582 222.23C476.553 213.861 477.328 204.859 474.83 196.733Z" fill="#297600"/>
<path d="M187.027 253.79C179.691 246.454 169.369 243.31 162.076 235.959C161.801 235.724 161.448 235.601 161.086 235.615C160.725 235.629 160.382 235.779 160.127 236.035C159.871 236.29 159.721 236.633 159.707 236.995C159.693 237.356 159.816 237.709 160.051 237.984C167.359 245.363 177.681 248.493 185.003 255.814C185.277 256.05 185.631 256.173 185.992 256.159C186.353 256.145 186.696 255.995 186.952 255.739C187.208 255.484 187.357 255.141 187.371 254.779C187.385 254.418 187.262 254.065 187.027 253.79Z" fill="black"/>
<path d="M151.814 247.569C150.597 246.483 149.703 245.082 149.23 243.521C149.163 243.279 149.033 243.059 148.855 242.883C148.676 242.707 148.455 242.581 148.212 242.517C147.97 242.453 147.715 242.454 147.473 242.519C147.23 242.584 147.01 242.712 146.832 242.889C145.506 243.93 143.933 244.613 142.267 244.87C140.444 245.186 141.219 247.957 143.028 247.641C143.855 247.488 144.663 247.247 145.44 246.923L137.615 262.873C136.811 264.524 139.281 265.989 140.099 264.309L148.21 247.77C148.673 248.426 149.202 249.032 149.79 249.579C151.153 250.843 153.178 248.818 151.814 247.569Z" fill="#033127"/>
<path d="M188.162 252.503C179.979 246.646 171.93 240.611 164.015 234.4C161.143 232.117 157.913 236.898 160.813 239.166C168.728 245.387 176.777 251.422 184.961 257.27C187.99 259.437 191.163 254.657 188.162 252.503Z" fill="#033127"/>
<path d="M176.649 258.048C171.404 253.559 165.982 249.3 160.383 245.27C157.382 243.103 154.511 248.142 157.511 250.223C162.718 253.975 167.752 257.938 172.614 262.111C175.385 264.494 179.462 260.445 176.649 258.048Z" fill="#033127"/>
<path d="M167.328 263.893L157.279 255.782C156.729 255.263 156.003 254.974 155.247 254.974C154.492 254.974 153.765 255.263 153.216 255.782C152.949 256.049 152.737 256.365 152.592 256.714C152.448 257.062 152.374 257.436 152.374 257.813C152.374 258.191 152.448 258.564 152.592 258.913C152.737 259.261 152.949 259.578 153.216 259.845L163.265 267.956C163.814 268.475 164.541 268.764 165.297 268.764C166.052 268.764 166.779 268.475 167.328 267.956C167.595 267.689 167.807 267.373 167.951 267.024C168.096 266.676 168.17 266.302 168.17 265.925C168.17 265.547 168.096 265.174 167.951 264.825C167.807 264.477 167.595 264.16 167.328 263.893Z" fill="#033127"/>
<path d="M158.283 270.381C155.909 268.342 153.464 266.385 150.947 264.509C150.621 264.318 150.26 264.193 149.886 264.142C149.512 264.09 149.131 264.113 148.765 264.209C148.4 264.305 148.057 264.473 147.756 264.701C147.456 264.93 147.203 265.216 147.013 265.543C146.822 265.869 146.697 266.229 146.646 266.604C146.594 266.978 146.617 267.359 146.713 267.724C146.809 268.09 146.977 268.432 147.205 268.733C147.434 269.034 147.72 269.286 148.047 269.476C150.157 271.056 152.21 272.721 154.22 274.444C154.768 274.966 155.495 275.257 156.252 275.257C157.008 275.257 157.736 274.966 158.283 274.444C158.55 274.177 158.762 273.86 158.906 273.512C159.051 273.163 159.125 272.79 159.125 272.412C159.125 272.035 159.051 271.661 158.906 271.313C158.762 270.964 158.55 270.647 158.283 270.381Z" fill="#033127"/>
<path d="M253.671 217.16C265.659 217.16 275.378 210.109 275.378 201.411C275.378 192.713 265.659 185.662 253.671 185.662C241.682 185.662 231.964 192.713 231.964 201.411C231.964 210.109 241.682 217.16 253.671 217.16Z" fill="#033127"/>
<path d="M244.85 187.019L253.665 201.375L264.619 187.78C264.619 187.78 256.895 183.989 244.85 187.019Z" fill="#FF8F6F"/>
<path d="M353.843 126.646C339.266 135.528 324.828 144.621 310.529 153.924C307.457 155.934 310.228 160.958 313.401 158.934C327.69 149.602 342.128 140.51 356.714 131.657C359.801 129.747 357.016 124.722 353.843 126.646Z" fill="#007F68"/>
<path d="M363.138 134.448C348.561 143.33 334.123 152.422 319.824 161.725C316.752 163.735 319.523 168.76 322.695 166.735C336.985 157.404 351.423 148.311 366.009 139.458C369.067 137.549 366.282 132.524 363.138 134.448Z" fill="#033127"/>
<path d="M372.931 140.911C358.354 149.793 343.916 158.886 329.617 168.189C326.545 170.199 329.316 175.223 332.488 173.199C346.778 163.867 361.216 154.775 375.802 145.922C378.932 144.012 376.06 138.988 372.931 140.911Z" fill="#033127"/>
<path d="M353.843 126.646C339.266 135.528 324.828 144.621 310.529 153.924C307.457 155.934 310.228 160.958 313.401 158.934C327.69 149.602 342.128 140.51 356.714 131.657C359.801 129.747 357.016 124.722 353.843 126.646Z" fill="#033127"/>
<path d="M363.138 134.448C358.094 137.52 353.074 140.621 348.078 143.751C349.773 144.89 351.394 146.137 352.93 147.483C357.256 144.794 361.597 142.119 365.951 139.458C369.067 137.549 366.282 132.524 363.138 134.448Z" fill="#FF8F6F"/>
<path d="M339.419 161.904C336.146 164.01 332.882 166.125 329.628 168.25C326.556 170.26 329.326 175.285 332.499 173.26C336.548 170.609 340.615 167.982 344.702 165.379C342.865 164.259 341.084 163.168 339.419 161.904Z" fill="white"/>
<path d="M267.829 177.263L278.726 204.497L296.47 196.73L284.798 169.266L267.829 177.263Z" fill="#3E2928"/>
<path d="M281.063 202.727C280.704 201.507 278.666 195.377 278.407 194.113C278.996 192.348 278.077 190.424 277.819 188.486C277.747 187.883 277.158 187.754 276.67 188.213C275.622 189.204 276.469 190.639 276.139 192.247C275.45 191.228 274.775 190.18 274.172 189.103C273.959 188.667 273.689 188.261 273.368 187.897C272.966 187.122 272.377 186.461 271.444 186.634C271.294 186.677 271.161 186.767 271.065 186.891C270.97 187.015 270.916 187.166 270.913 187.323C270.893 187.576 270.893 187.831 270.913 188.084C270.636 188.07 270.364 188.159 270.15 188.334C269.935 188.509 269.792 188.757 269.75 189.031C269.654 189.879 269.835 190.736 270.267 191.472C270.096 191.547 269.944 191.658 269.819 191.797C269.694 191.935 269.6 192.099 269.543 192.277C269.486 192.454 269.467 192.642 269.488 192.828C269.509 193.013 269.569 193.192 269.664 193.353C270.174 194.135 270.798 194.837 271.516 195.434C272.31 196.174 272.979 197.037 273.497 197.99C273.558 198.115 273.659 198.216 273.784 198.277C274.703 200.373 276.182 203.876 276.397 204.464C277.913 203.784 279.472 203.204 281.063 202.727Z" fill="#FFB5A9"/>
<path d="M314.701 187.357C320.419 192.285 324.745 198.626 327.248 205.747C331.67 217.936 320.63 237.877 320.63 237.877L303.402 224.296" fill="#FF8F6F"/>
<path d="M316.593 348.592L321.259 346.008L320.081 339.347C320.081 339.347 313.133 339.993 312.53 342.476" fill="#003B94"/>
<path d="M314.842 348.489C313.794 347.843 312.688 347.283 311.611 346.694C308.912 345.258 305.022 343.694 303.371 340.951C303.039 340.397 302.882 339.755 302.92 339.109C302.959 338.464 303.191 337.845 303.586 337.334C306.041 334.376 311.367 339.229 314.109 335.898C314.655 335.252 314.899 324.987 314.899 324.987L325.293 327.858C325.293 327.858 327.059 348.474 326.858 349.752C326.657 351.03 323.082 352.25 323.082 352.25C322.012 352.021 320.991 351.603 320.067 351.015C318.976 350.226 319.967 340.55 318.632 341.913C317.297 343.277 316.636 348.56 316.636 348.56C316.037 348.612 315.434 348.588 314.842 348.489Z" fill="#033127"/>
<path d="M296.695 358.558L301.361 355.974L300.184 349.312C300.184 349.312 293.235 349.958 292.632 352.442" fill="#003B94"/>
<path d="M294.946 358.458C293.898 357.812 292.793 357.252 291.716 356.664C289.017 355.228 285.126 353.663 283.475 350.921C283.143 350.366 282.986 349.724 283.025 349.079C283.063 348.433 283.295 347.815 283.691 347.303C286.146 344.346 291.472 349.198 294.214 345.867C294.759 345.221 295.003 334.957 295.003 334.957L305.398 337.828C305.398 337.828 307.149 358.415 306.962 359.635C306.776 360.856 303.187 362.133 303.187 362.133C302.126 361.925 301.11 361.531 300.186 360.97C299.095 360.181 300.086 350.505 298.751 351.868C297.415 353.232 296.755 358.516 296.755 358.516C296.152 358.573 295.544 358.553 294.946 358.458Z" fill="#033127"/>
<path d="M330.561 291.54L333.561 332.484C333.561 332.484 328.694 339.217 312.328 335.47L312.17 307.863" fill="#E5E5E5"/>
<path d="M311.615 299.651C311.974 303.183 311.615 342.074 311.615 342.074C311.615 342.074 307.092 350.545 287.381 342.074L287.654 309.054" fill="#E5E5E5"/>
<path d="M328.882 302.041C323.781 305.024 318.364 307.432 312.731 309.219H312.602C312.337 309.107 312.038 309.103 311.77 309.208C311.502 309.312 311.286 309.517 311.166 309.779C307.689 310.802 304.15 311.603 300.571 312.177C295.977 312.909 292.158 309.506 287.449 309.305C287.449 291.23 287.363 239.719 295.058 228.909L317.813 221.3C317.914 223.181 328.868 235.872 328.609 251.334C328.447 265.083 329.138 278.83 330.677 292.494" fill="#E5E5E5"/>
<path d="M292.892 207.958L294.988 228.703C294.988 228.703 311.986 229.392 319.308 224.396V206.738" fill="#FF8F6F"/>
<path d="M306.263 188.51C306.263 188.51 295.668 191.209 292.409 196.42C290.38 199.976 288.591 203.665 287.054 207.46L281.125 198.243C281.125 198.243 273.946 200.454 271.075 203.986C271.075 203.986 279.689 222.649 287.054 224.257C294.419 225.865 309.522 216.404 309.522 216.404C309.522 216.404 304.023 218.457 303.708 212.858" fill="#FF8F6F"/>
<path d="M298.534 208.984C300.855 207.103 302.613 204.62 303.616 201.806C304.578 198.533 303.372 195.647 302.18 192.589C300.967 189.567 300.258 186.366 300.084 183.114C299.984 179.912 300.357 176.725 300.572 173.538C300.604 173.401 300.604 173.258 300.572 173.122C301.635 169.518 303.846 166.474 308.181 166.116C319.394 165.168 320.025 177.601 319.939 182.626C319.853 187.65 319.322 191.081 323.04 193.206C326.759 195.331 329.443 200.844 325.911 205.323C322.38 209.802 325.553 208.194 327.907 212.142C330.262 216.091 329.659 221.087 324.806 222.881C319.954 224.676 297.385 221.302 295.303 219.206C294.925 218.779 294.634 218.282 294.45 217.742C294.265 217.202 294.189 216.631 294.227 216.062C294.762 213.26 296.292 210.747 298.534 208.984Z" fill="#BA4F32"/>
<path d="M311.064 256.093V340.796C311.064 340.987 311.14 341.169 311.275 341.304C311.409 341.438 311.592 341.514 311.782 341.514C311.973 341.514 312.155 341.438 312.29 341.304C312.424 341.169 312.5 340.987 312.5 340.796V256.093C312.5 255.903 312.424 255.72 312.29 255.585C312.155 255.451 311.973 255.375 311.782 255.375C311.592 255.375 311.409 255.451 311.275 255.585C311.14 255.72 311.064 255.903 311.064 256.093Z" fill="#3E2928"/>
<defs>
<linearGradient id="paint0_linear_111_1458" x1="0.00504493" y1="232.778" x2="553.993" y2="232.778" gradientUnits="userSpaceOnUse">
<stop stop-color="#0FCC7C"/>
<stop offset="1" stop-color="#033127"/>
</linearGradient>
<linearGradient id="paint1_linear_111_1458" x1="328.313" y1="370.358" x2="319.038" y2="354.451" gradientUnits="userSpaceOnUse">
<stop stop-color="white" stop-opacity="0"/>
<stop offset="0.99" stop-color="#FFA86A"/>
</linearGradient>
<linearGradient id="paint2_linear_111_1458" x1="23532" y1="12570.1" x2="23222.8" y2="11666.5" gradientUnits="userSpaceOnUse">
<stop stop-color="white" stop-opacity="0"/>
<stop offset="0.99" stop-color="#FFA86A"/>
</linearGradient>
<linearGradient id="paint3_linear_111_1458" x1="16512.5" y1="15162.9" x2="16197.6" y2="14243.1" gradientUnits="userSpaceOnUse">
<stop stop-color="white" stop-opacity="0"/>
<stop offset="0.99" stop-color="#FFA86A"/>
</linearGradient>
<linearGradient id="paint4_linear_111_1458" x1="30290.9" y1="10303.4" x2="29981.8" y2="9400.04" gradientUnits="userSpaceOnUse">
<stop stop-color="white" stop-opacity="0"/>
<stop offset="0.99" stop-color="#FFA86A"/>
</linearGradient>
<linearGradient id="paint5_linear_111_1458" x1="23531.7" y1="7391.32" x2="23370.3" y2="6887.4" gradientUnits="userSpaceOnUse">
<stop stop-color="white" stop-opacity="0"/>
<stop offset="0.99" stop-color="#FFA86A"/>
</linearGradient>
</defs>
</svg>
