<svg width="30" height="28" viewBox="0 0 30 28" fill="none" xmlns="http://www.w3.org/2000/svg">
<path d="M5.28525 0C5.04289 0 4.84597 0.196352 4.84597 0.438532V1.45602H2.12429C0.9528 1.45602 0 2.40924 0 3.58093V22.6556C0 24.0219 1.11176 25.1336 2.47817 25.1336H20.617C21.3429 26.8179 23.0192 28 24.9667 28C27.5771 28 29.7007 25.8761 29.7007 23.2657C29.7007 21.2858 28.4782 19.5873 26.749 18.8816V3.58093C26.749 2.40953 25.7962 1.45602 24.6248 1.45602H21.9031V0.438532C21.9031 0.196352 21.7067 0 21.4647 0C21.2223 0 21.026 0.196352 21.026 0.438532V1.45602H16.51V0.438532C16.51 0.196352 16.3137 0 16.0713 0C15.8293 0 15.6329 0.196352 15.6329 0.438532V1.45602H11.1169V0.438532C11.1169 0.196352 10.9206 0 10.6783 0C10.4362 0 10.2399 0.196352 10.2399 0.438532V1.45602H5.72357V0.438532C5.72357 0.196352 5.52725 0 5.28519 0H5.28525ZM2.1242 2.3332H4.84589V2.99731C4.03446 3.19482 3.43005 3.92754 3.43005 4.79896C3.43005 5.82185 4.26197 6.65377 5.28457 6.65377C6.30716 6.65377 7.13968 5.82185 7.13968 4.79896C7.13968 3.92754 6.53467 3.19482 5.72325 2.99731V2.3332H10.2392V2.99731C9.42752 3.19482 8.82311 3.92754 8.82311 4.79896C8.82311 5.82185 9.65503 6.65377 10.6776 6.65377C11.7002 6.65377 12.5327 5.82185 12.5327 4.79896C12.5327 3.92754 11.9277 3.19482 11.1163 2.99731V2.3332H15.6323V2.99731C14.8206 3.19482 14.2162 3.92754 14.2162 4.79896C14.2162 5.82185 15.0481 6.65377 16.0707 6.65377C17.0936 6.65377 17.9258 5.82185 17.9258 4.79896C17.9258 3.92754 17.3217 3.19482 16.51 2.99731V2.3332H21.026V2.99731C20.2142 3.19482 19.6092 3.92754 19.6092 4.79896C19.6092 5.82185 20.4418 6.65377 21.4646 6.65377C22.4872 6.65377 23.3192 5.82185 23.3192 4.79896C23.3192 3.92754 22.7147 3.19482 21.903 2.99731V2.3332H24.6242C25.3121 2.3332 25.8719 2.89306 25.8719 3.58093V7.14799H0.876974L0.877004 3.58093C0.877004 2.89306 1.43636 2.3332 2.1242 2.3332ZM4.84589 3.92665V4.79896C4.84589 5.04132 5.0428 5.23764 5.28516 5.23764C5.52722 5.23764 5.72354 5.04132 5.72354 4.79896V3.92665C6.04283 4.08763 6.26261 4.4179 6.26261 4.79896C6.26261 5.33803 5.82423 5.77641 5.28516 5.77641C4.74609 5.77641 4.30711 5.33803 4.30711 4.79896C4.30711 4.4179 4.5269 4.08763 4.84589 3.92665ZM10.2398 3.92665V4.79896C10.2398 5.04132 10.4362 5.23764 10.6782 5.23764C10.9206 5.23764 11.1163 5.04132 11.1163 4.79896V3.92665C11.4353 4.08763 11.6557 4.4179 11.6557 4.79896C11.6557 5.33803 11.2173 5.77641 10.6782 5.77641C10.1392 5.77641 9.70018 5.33803 9.70018 4.79896C9.70018 4.4179 9.92056 4.08763 10.2398 3.92665ZM15.6329 3.92665V4.79896C15.6329 5.04132 15.8292 5.23764 16.0713 5.23764C16.3136 5.23764 16.51 5.04132 16.51 4.79896V3.92665C16.829 4.08763 17.0487 4.4179 17.0487 4.79896C17.0487 5.33803 16.6104 5.77641 16.0713 5.77641C15.5322 5.77641 15.0932 5.33803 15.0932 4.79896C15.0932 4.4179 15.3136 4.08763 15.6329 3.92665ZM21.026 3.92665V4.79896C21.026 5.04132 21.2223 5.23764 21.4646 5.23764C21.7067 5.23764 21.903 5.04132 21.903 4.79896V3.92665C22.2223 4.08763 22.4421 4.4179 22.4421 4.79896C22.4421 5.33803 22.0034 5.77641 21.4646 5.77641C20.9256 5.77641 20.4866 5.33803 20.4866 4.79896C20.4866 4.4179 20.7067 4.08763 21.026 3.92665ZM4.29078 9.60573H5.30536C5.96471 9.60573 6.5017 10.1421 6.5017 10.8012V11.8158C6.5017 12.4751 5.96471 13.0115 5.30536 13.0115H4.29078C3.63172 13.0115 3.09532 12.4751 3.09532 11.8158V10.8012C3.09532 10.1421 3.63172 9.60573 4.29078 9.60573ZM8.57897 9.60573H9.59414C10.2532 9.60573 10.7896 10.1421 10.7896 10.8012V11.8158C10.7896 12.4751 10.2532 13.0115 9.59414 13.0115H8.57897C7.91962 13.0115 7.38382 12.4751 7.38382 11.8158V10.8012C7.38382 10.1421 7.91962 9.60573 8.57897 9.60573ZM12.8669 9.60573H13.882C14.5414 9.60573 15.0778 10.1421 15.0778 10.8012V11.8158C15.0778 12.4751 14.5414 13.0115 13.882 13.0115H12.8669C12.2078 13.0115 11.672 12.4751 11.672 11.8158V10.8012C11.672 10.1421 12.2078 9.60573 12.8669 9.60573ZM17.1557 9.60573H18.1702C18.8293 9.60573 19.3657 10.1421 19.3657 10.8012V11.8158C19.3657 12.4751 18.8293 13.0115 18.1702 13.0115H17.1557C16.4963 13.0115 15.9593 12.4751 15.9593 11.8158V10.8012C15.9593 10.1421 16.4963 9.60573 17.1557 9.60573ZM21.4436 9.60573H22.4581C23.1175 9.60573 23.6539 10.1421 23.6539 10.8012V11.8158C23.6539 12.4751 23.1175 13.0115 22.4581 13.0115H21.4436C20.7845 13.0115 20.2475 12.4751 20.2475 11.8158V10.8012C20.2475 10.1421 20.7845 9.60573 21.4436 9.60573ZM4.29078 10.4828C4.11525 10.4828 3.97239 10.6257 3.97239 10.8012V11.8158C3.97239 11.9916 4.11525 12.1345 4.29078 12.1345H5.30536C5.48118 12.1345 5.62464 11.9916 5.62464 11.8158V10.8012C5.62464 10.6257 5.48118 10.4828 5.30536 10.4828H4.29078ZM8.57897 10.4828C8.40344 10.4828 8.26088 10.6257 8.26088 10.8012V11.8158C8.26088 11.9916 8.40344 12.1345 8.57897 12.1345H9.59414C9.76968 12.1345 9.91254 11.9916 9.91254 11.8158V10.8012C9.91254 10.6257 9.76968 10.4828 9.59414 10.4828H8.57897ZM12.8669 10.4828C12.6913 10.4828 12.5491 10.6257 12.5491 10.8012V11.8158C12.5491 11.9916 12.6913 12.1345 12.8669 12.1345H13.882C14.0576 12.1345 14.2004 11.9916 14.2004 11.8158V10.8012C14.2004 10.6257 14.0576 10.4828 13.882 10.4828H12.8669ZM17.1557 10.4828C16.9798 10.4828 16.837 10.6257 16.837 10.8012V11.8158C16.837 11.9916 16.9798 12.1345 17.1557 12.1345H18.1702C18.3458 12.1345 18.4886 11.9916 18.4886 11.8158V10.8012C18.4886 10.6257 18.3458 10.4828 18.1702 10.4828H17.1557ZM21.4436 10.4828C21.268 10.4828 21.1252 10.6257 21.1252 10.8012V11.8158C21.1252 11.9916 21.268 12.1345 21.4436 12.1345H22.4581C22.6337 12.1345 22.7768 11.9916 22.7768 11.8158V10.8012C22.7768 10.6257 22.6337 10.4828 22.4581 10.4828H21.4436ZM4.29078 13.9337H5.30536C5.96471 13.9337 6.5017 14.4701 6.5017 15.1295V16.1441C6.5017 16.8031 5.96471 17.3395 5.30536 17.3395H4.29078C3.63172 17.3395 3.09532 16.8031 3.09532 16.1441V15.1295C3.09532 14.4701 3.63172 13.9337 4.29078 13.9337ZM8.57897 13.9337H9.59414C10.2532 13.9337 10.7896 14.4701 10.7896 15.1295V16.1441C10.7896 16.8031 10.2532 17.3395 9.59414 17.3395H8.57897C7.91962 17.3395 7.38382 16.8031 7.38382 16.1441V15.1295C7.38382 14.4701 7.91962 13.9337 8.57897 13.9337ZM12.8669 13.9337H13.882C14.5414 13.9337 15.0778 14.4701 15.0778 15.1295V16.1441C15.0778 16.8031 14.5414 17.3395 13.882 17.3395H12.8669C12.2078 17.3395 11.672 16.8031 11.672 16.1441V15.1295C11.672 14.4701 12.2078 13.9337 12.8669 13.9337ZM17.1557 13.9337H18.1702C18.8293 13.9337 19.3657 14.4701 19.3657 15.1295V16.1441C19.3657 16.8031 18.8293 17.3395 18.1702 17.3395H17.1557C16.4963 17.3395 15.9593 16.8031 15.9593 16.1441V15.1295C15.9593 14.4701 16.4963 13.9337 17.1557 13.9337ZM21.4436 13.9337H22.4581C23.1175 13.9337 23.6539 14.4701 23.6539 15.1295V16.1441C23.6539 16.8031 23.1175 17.3395 22.4581 17.3395H21.4436C20.7845 17.3395 20.2475 16.8031 20.2475 16.1441V15.1295C20.2475 14.4701 20.7845 13.9337 21.4436 13.9337ZM4.29078 14.8108C4.11525 14.8108 3.97239 14.9539 3.97239 15.1295V16.1441C3.97239 16.3196 4.11525 16.4624 4.29078 16.4624H5.30536C5.48118 16.4624 5.62464 16.3196 5.62464 16.1441V15.1295C5.62464 14.9539 5.48118 14.8108 5.30536 14.8108H4.29078ZM8.57897 14.8108C8.40344 14.8108 8.26088 14.9539 8.26088 15.1295V16.1441C8.26088 16.3196 8.40344 16.4624 8.57897 16.4624H9.59414C9.76968 16.4624 9.91254 16.3196 9.91254 16.1441V15.1295C9.91254 14.9539 9.76968 14.8108 9.59414 14.8108H8.57897ZM12.8669 14.8108C12.6913 14.8108 12.5491 14.9539 12.5491 15.1295V16.1441C12.5491 16.3196 12.6913 16.4624 12.8669 16.4624H13.882C14.0576 16.4624 14.2004 16.3196 14.2004 16.1441V15.1295C14.2004 14.9539 14.0576 14.8108 13.882 14.8108H12.8669ZM17.1557 14.8108C16.9798 14.8108 16.837 14.9539 16.837 15.1295V16.1441C16.837 16.3196 16.9798 16.4624 17.1557 16.4624H18.1702C18.3458 16.4624 18.4886 16.3196 18.4886 16.1441V15.1295C18.4886 14.9539 18.3458 14.8108 18.1702 14.8108H17.1557ZM21.4436 14.8108C21.268 14.8108 21.1252 14.9539 21.1252 15.1295V16.1441C21.1252 16.3196 21.268 16.4624 21.4436 16.4624H22.4581C22.6337 16.4624 22.7768 16.3196 22.7768 16.1441V15.1295C22.7768 14.9539 22.6337 14.8108 22.4581 14.8108H21.4436ZM4.29078 18.2626H5.30536C5.96471 18.2626 6.5017 18.7984 6.5017 19.4575V20.4726C6.5017 21.132 5.96471 21.6681 5.30536 21.6681H4.29078C3.63172 21.6681 3.09532 21.132 3.09532 20.4726V19.4575C3.09532 18.7981 3.63172 18.2626 4.29078 18.2626ZM8.57897 18.2626H9.59414C10.2532 18.2626 10.7896 18.7981 10.7896 19.4575V20.4726C10.7896 21.132 10.2532 21.6681 9.59414 21.6681H8.57897C7.91962 21.6681 7.38382 21.132 7.38382 20.4726V19.4575C7.38382 18.7981 7.91962 18.2626 8.57897 18.2626ZM12.8669 18.2626H13.882C14.5414 18.2626 15.0778 18.7981 15.0778 19.4575V20.4726C15.0778 21.132 14.5414 21.6681 13.882 21.6681H12.8669C12.2078 21.6681 11.672 21.132 11.672 20.4726V19.4575C11.672 18.7981 12.2078 18.2626 12.8669 18.2626ZM17.1301 18.2626H18.1447C18.8038 18.2626 19.3402 18.7981 19.3402 19.4575V20.4726C19.3402 21.132 18.8038 21.6681 18.1447 21.6681H17.1301C16.4708 21.6681 15.9344 21.132 15.9344 20.4726V19.4575C15.9344 18.7981 16.4708 18.2626 17.1301 18.2626ZM4.29078 19.1391C4.11525 19.1391 3.97239 19.2819 3.97239 19.4575V20.4726C3.97239 20.6482 4.11525 20.791 4.29078 20.791H5.30536C5.48118 20.791 5.62464 20.6482 5.62464 20.4726V19.4575C5.62464 19.2819 5.48118 19.1391 5.30536 19.1391H4.29078ZM8.57897 19.1397C8.40344 19.1397 8.26088 19.2825 8.26088 19.4581V20.4726C8.26088 20.6482 8.40344 20.791 8.57897 20.791H9.59414C9.76968 20.791 9.91254 20.6482 9.91254 20.4726V19.4581C9.91254 19.2825 9.76968 19.1397 9.59414 19.1397H8.57897ZM12.8669 19.1397C12.6913 19.1397 12.5491 19.2825 12.5491 19.4581V20.4726C12.5491 20.6482 12.6913 20.791 12.8669 20.791H13.882C14.0576 20.791 14.2004 20.6482 14.2004 20.4726V19.4581C14.2004 19.2825 14.0576 19.1397 13.882 19.1397H12.8669ZM17.1301 19.1397C16.9546 19.1397 16.8117 19.2825 16.8117 19.4581V20.4726C16.8117 20.6482 16.9546 20.791 17.1301 20.791H18.1447C18.3202 20.791 18.4631 20.6482 18.4631 20.4726V19.4581C18.4631 19.2825 18.3202 19.1397 18.1447 19.1397H17.1301ZM24.9667 19.4088C27.0932 19.4088 28.8236 21.1391 28.8236 23.2657C28.8236 25.3926 27.0932 27.1229 24.9667 27.1229C22.8398 27.1229 21.1094 25.3926 21.1094 23.2657C21.1094 22.5122 21.3268 21.7821 21.7376 21.1549C21.7581 21.1237 21.772 21.1002 21.8062 21.058C22.1204 20.6211 22.4709 20.3114 22.8793 20.0185C22.893 20.0117 22.9063 20.0046 22.9194 19.9962C23.5318 19.6122 24.2396 19.4088 24.9667 19.4088ZM24.9676 20.2297C24.7255 20.2297 24.5292 20.426 24.5292 20.6681V23.2547C24.5292 23.4971 24.7255 23.6934 24.9676 23.6934H27.5637C27.8058 23.6934 28.0021 23.4971 28.0021 23.2547C28.0021 23.0127 27.8058 22.8163 27.5637 22.8163H25.4062V20.6681C25.4062 20.426 25.2099 20.2297 24.9676 20.2297Z" fill="black"/>
</svg>
